<svg viewBox="0 0 360 240" xmlns="http://www.w3.org/2000/svg">
<defs>
  <filter id="paper" x="-2%" y="-2%" width="104%" height="104%">
    <feTurbulence type="fractalNoise" baseFrequency="0.72" numOctaves="4" seed="8" result="noise"/>
    <feColorMatrix type="saturate" values="0" in="noise" result="gray"/>
    <feBlend in="SourceGraphic" in2="gray" mode="multiply" result="textured"/>
    <feComponentTransfer in="textured">
      <feFuncR type="linear" slope="1.04" intercept="-0.02"/>
      <feFuncG type="linear" slope="1.02" intercept="-0.01"/>
    </feComponentTransfer>
  </filter>
  <filter id="wc" x="-4%" y="-4%" width="108%" height="108%">
    <feTurbulence type="turbulence" baseFrequency="0.025 0.03" numOctaves="2" seed="12" result="noise"/>
    <feDisplacementMap in="SourceGraphic" in2="noise" scale="3.5" xChannelSelector="R" yChannelSelector="G"/>
  </filter>
  <filter id="wc2" x="-4%" y="-4%" width="108%" height="108%">
    <feTurbulence type="turbulence" baseFrequency="0.04 0.05" numOctaves="2" seed="3" result="noise"/>
    <feDisplacementMap in="SourceGraphic" in2="noise" scale="2.5" xChannelSelector="G" yChannelSelector="R"/>
  </filter>
  <radialGradient id="lamplight" cx="50%" cy="80%" r="60%">
    <stop offset="0%" stop-color="#FFF3B0" stop-opacity="0.55"/>
    <stop offset="100%" stop-color="#FFF3B0" stop-opacity="0"/>
  </radialGradient>
</defs>

<g filter="url(#paper)">
  <!-- Wall -->
  <path d="M0,0 L360,0 L360,168 L0,168 Z" fill="#EDE5D0"/>
  <!-- Baseboard -->
  <path d="M0,162 Q90,159 180,161 Q270,163 360,160 L360,170 L0,170 Z" fill="#D8CEBC" stroke="#C8BCA8" stroke-width="0.5"/>
  <!-- Floor -->
  <path d="M0,162 Q90,158 180,160 Q270,162 360,159 L360,240 L0,240 Z" fill="#C8906A"/>
  <line x1="0" y1="185" x2="360" y2="183" stroke="#B8804A" stroke-width="0.6" opacity="0.5"/>
  <line x1="0" y1="205" x2="360" y2="203" stroke="#B8804A" stroke-width="0.6" opacity="0.5"/>
  <line x1="0" y1="225" x2="360" y2="223" stroke="#B8804A" stroke-width="0.5" opacity="0.4"/>
  <line x1="60"  y1="162" x2="40"  y2="240" stroke="#B8804A" stroke-width="0.4" opacity="0.35"/>
  <line x1="120" y1="162" x2="108" y2="240" stroke="#B8804A" stroke-width="0.4" opacity="0.35"/>
  <line x1="180" y1="162" x2="178" y2="240" stroke="#B8804A" stroke-width="0.4" opacity="0.35"/>
  <line x1="240" y1="162" x2="248" y2="240" stroke="#B8804A" stroke-width="0.4" opacity="0.35"/>
  <line x1="300" y1="162" x2="318" y2="240" stroke="#B8804A" stroke-width="0.4" opacity="0.35"/>

  <!-- Window -->
  <g filter="url(#wc2)">
    <rect x="128" y="10" width="104" height="78" rx="2" fill="#C2D8E5" stroke="#B0A888" stroke-width="2.5"/>
    <rect x="130" y="12" width="48" height="74" rx="1" fill="#D0E8F0" opacity="0.75"/>
    <rect x="180" y="12" width="50" height="74" rx="1" fill="#C8E2EE" opacity="0.75"/>
    <line x1="180" y1="12" x2="180" y2="86" stroke="#B0A888" stroke-width="2"/>
    <line x1="130" y1="48" x2="230" y2="48" stroke="#B0A888" stroke-width="2"/>
    <ellipse cx="180" cy="175" rx="55" ry="12" fill="#FFF8E0" opacity="0.25"/>
  </g>

  <!-- Painting left wall -->
  <g filter="url(#wc2)">
    <rect x="22" y="18" width="62" height="48" rx="2" fill="#8B7248" stroke="#7A6238" stroke-width="2"/>
    <rect x="26" y="22" width="54" height="40" fill="#D4C090"/>
    <rect x="26" y="22" width="54" height="22" fill="#A8C8DC"/>
    <ellipse cx="42" cy="44" rx="18" ry="14" fill="#6A9A58"/>
    <ellipse cx="68" cy="46" rx="16" ry="12" fill="#5A8A48"/>
    <circle cx="55" cy="30" r="8" fill="#F5D080" opacity="0.8"/>
  </g>

  <!-- Lamp halo -->
  <ellipse cx="302" cy="100" rx="52" ry="44" fill="url(#lamplight)"/>

  <!-- Floor lamp -->
  <g filter="url(#wc)">
    <ellipse cx="302" cy="213" rx="16" ry="5" fill="#7A6045"/>
    <path d="M300,213 Q301,160 299,115" stroke="#8B7055" stroke-width="4" fill="none" stroke-linecap="round"/>
    <path d="M299,115 Q308,108 316,112" stroke="#8B7055" stroke-width="3" fill="none"/>
    <path d="M304,92 Q318,86 328,96 L322,116 Q318,120 308,118 L301,116 Z" fill="#F0CC58" stroke="#D8AA40" stroke-width="1.5"/>
    <path d="M306,96 Q318,92 326,100 L322,112 Q315,116 308,114 L303,112 Z" fill="#E0AA30" opacity="0.35"/>
  </g>

  <!-- Plant -->
  <g filter="url(#wc)">
    <path d="M38,200 Q34,196 33,210 L57,210 Q56,196 52,200 Z" fill="#C46A42" stroke="#A85832" stroke-width="1.5"/>
    <path d="M35,198 L55,198 Q57,200 57,202 L33,202 Q33,200 35,198 Z" fill="#D47A52"/>
    <ellipse cx="45" cy="200" rx="11" ry="3" fill="#6B4228"/>
    <path d="M45,198 Q40,180 32,165" stroke="#4A7A3A" stroke-width="2.5" fill="none" stroke-linecap="round"/>
    <path d="M45,198 Q46,175 48,160" stroke="#4A7A3A" stroke-width="2.5" fill="none" stroke-linecap="round"/>
    <path d="M45,198 Q52,178 62,168" stroke="#4A7A3A" stroke-width="2.5" fill="none" stroke-linecap="round"/>
    <path d="M45,196 Q36,185 28,182" stroke="#4A7A3A" stroke-width="2" fill="none" stroke-linecap="round"/>
    <path d="M32,165 Q20,148 28,138 Q36,130 44,140 Q46,152 38,160 Q35,163 32,165 Z" fill="#4A8A42" stroke="#3A7032" stroke-width="1"/>
    <path d="M35,152 Q30,143 35,140" stroke="#3A7032" stroke-width="0.8" fill="none"/>
    <path d="M38,157 Q33,150 36,146" stroke="#3A7032" stroke-width="0.8" fill="none"/>
    <path d="M48,160 Q52,140 62,136 Q72,134 72,146 Q70,158 58,162 Q53,162 48,160 Z" fill="#5A9A52" stroke="#3A7032" stroke-width="1"/>
    <path d="M55,150 Q58,142 63,142" stroke="#3A7032" stroke-width="0.8" fill="none"/>
    <path d="M62,168 Q75,156 84,158 Q90,162 86,172 Q80,180 70,176 Q64,172 62,168 Z" fill="#4A8A42" stroke="#3A7032" stroke-width="1"/>
    <path d="M28,182 Q14,180 12,170 Q12,160 22,162 Q30,165 30,174 Z" fill="#5A9A52" stroke="#3A7032" stroke-width="1"/>
  </g>

  <!-- Sofa -->
  <g filter="url(#wc)">
    <ellipse cx="180" cy="198" rx="100" ry="8" fill="#8B6840" opacity="0.22"/>
    <path d="M74,98 Q72,92 76,88 Q80,84 90,84 L270,84 Q280,84 284,88 Q288,92 286,98 L286,162 Q284,168 270,168 L90,168 Q76,168 74,162 Z" fill="#7A9DB5" stroke="#5A7D95" stroke-width="1.5"/>
    <path d="M78,148 L282,148 L282,168 Q270,172 90,172 Q78,172 78,168 Z" fill="#6A8DA5" stroke="#5A7D95" stroke-width="1"/>
    <path d="M68,96 Q65,94 64,98 L64,172 Q65,176 70,176 L82,176 L82,88 Q76,88 68,96 Z" fill="#6A8DA5" stroke="#5A7D95" stroke-width="1.5"/>
    <path d="M292,96 Q295,94 296,98 L296,172 Q295,176 290,176 L278,176 L278,88 Q284,88 292,96 Z" fill="#6A8DA5" stroke="#5A7D95" stroke-width="1.5"/>
    <line x1="150" y1="148" x2="148" y2="172" stroke="#5A7D95" stroke-width="1" opacity="0.5"/>
    <line x1="210" y1="148" x2="212" y2="172" stroke="#5A7D95" stroke-width="1" opacity="0.5"/>
    <path d="M82,120 Q82,110 84,108 L144,108 Q148,110 148,120 L148,148 Q146,150 84,150 Q82,148 82,120 Z" fill="#88ADCA" stroke="#6A8DA5" stroke-width="0.8"/>
    <path d="M152,120 Q152,110 154,108 L206,108 Q210,110 210,120 L210,148 Q208,150 154,150 Q152,148 152,120 Z" fill="#7A9DC0" stroke="#6A8DA5" stroke-width="0.8"/>
    <path d="M214,120 Q214,110 216,108 L276,108 Q280,110 280,120 L280,148 Q278,150 216,150 Q214,148 214,120 Z" fill="#88ADCA" stroke="#6A8DA5" stroke-width="0.8"/>
    <path d="M90,118 Q110,115 140,118" stroke="#A0C5D8" stroke-width="1" fill="none" opacity="0.6"/>
    <path d="M158,118 Q180,115 202,118" stroke="#A0C5D8" stroke-width="1" fill="none" opacity="0.6"/>
    <path d="M220,118 Q245,115 272,118" stroke="#A0C5D8" stroke-width="1" fill="none" opacity="0.6"/>
    <path d="M88,98 Q85,88 96,85 Q108,82 112,92 Q114,102 104,105 Q92,106 88,98 Z" fill="#EDD5A0" stroke="#D0B870" stroke-width="1.2"/>
    <path d="M246,98 Q250,87 261,86 Q272,85 274,96 Q275,106 264,108 Q252,108 246,98 Z" fill="#8FAA78" stroke="#6A8848" stroke-width="1.2"/>
  </g>

  <!-- Coffee table -->
  <g filter="url(#wc)">
    <path d="M118,183 Q118,178 124,177 L236,177 Q242,178 242,183 L240,192 Q240,196 234,196 L126,196 Q120,196 120,192 Z" fill="#A07850" stroke="#806030" stroke-width="1.5"/>
    <path d="M130,181 Q165,179 210,181" stroke="#C09060" stroke-width="1" fill="none" opacity="0.5"/>
    <rect x="126" y="192" width="8" height="16" rx="2" fill="#906840" stroke="#706030" stroke-width="1"/>
    <rect x="226" y="192" width="8" height="16" rx="2" fill="#906840" stroke="#706030" stroke-width="1"/>
    <rect x="168" y="173" width="18" height="6" rx="1" fill="#C84040" opacity="0.7"/>
    <rect x="191" y="175" width="10" height="4" rx="1" fill="#E8E0C0" opacity="0.6"/>
  </g>
</g>
</svg>
